<?xml version="1.0" encoding="UTF-8"?>
<!DOCTYPE svg PUBLIC "-//W3C//DTD SVG 1.1//EN" "http://www.w3.org/Graphics/SVG/1.1/DTD/svg11.dtd">
<!-- Creator: CorelDRAW X5 -->
<svg xmlns="http://www.w3.org/2000/svg" xml:space="preserve" width="2048px" height="2048px" style="shape-rendering:geometricPrecision; text-rendering:geometricPrecision; image-rendering:optimizeQuality; fill-rule:evenodd; clip-rule:evenodd"
viewBox="0 0 2048 2048"
 xmlns:xlink="http://www.w3.org/1999/xlink">
 <defs>
  <style type="text/css">
   <![CDATA[
    .fil10 {fill:none}
    .fil4 {fill:#0277BD;fill-rule:nonzero}
    .fil5 {fill:#0288D1;fill-rule:nonzero}
    .fil6 {fill:#039BE5;fill-rule:nonzero}
    .fil7 {fill:#046EB8;fill-rule:nonzero}
    .fil8 {fill:#047CC8;fill-rule:nonzero}
    .fil9 {fill:#058BD8;fill-rule:nonzero}
    .fil2 {fill:#3C3C3C;fill-rule:nonzero}
    .fil1 {fill:#424242;fill-rule:nonzero}
    .fil3 {fill:#D45C00;fill-rule:nonzero}
    .fil0 {fill:#FF6F00;fill-rule:nonzero}
   ]]>
  </style>
 </defs>
 <g id="Layer_x0020_1">
  <metadata id="CorelCorpID_0Corel-Layer"/>
  <path class="fil0" d="M542 694l2 0 0 0 293 -251 57 -49c14,-12 28,-24 42,-36l0 60 0 75 0 530 0 1 -393 0 0 -1 0 -329z"/>
  <path class="fil1" d="M375 694l167 0 0 660 -167 0c-33,0 -62,-14 -84,-37 -22,-23 -35,-55 -35,-90l0 -203 0 -2 0 -201c0,-35 13,-67 35,-90 22,-23 51,-37 84,-37z"/>
  <path class="fil2" d="M542 1354l-167 0c-33,0 -62,-14 -84,-37 -22,-23 -35,-55 -35,-90l0 -203 286 0 0 330z"/>
  <polygon class="fil3" points="936,1024 936,1555 936,1689 837,1605 544,1354 543,1354 542,1354 542,1024 "/>
  <g id="_353381344">
   <path class="fil4" d="M1544 1738c-22,27 -61,29 -86,5 -25,-24 -27,-65 -5,-91 70,-84 124,-181 161,-284 37,-103 56,-214 56,-327 0,-120 -22,-238 -64,-347 -42,-109 -103,-210 -181,-296 -23,-26 -23,-67 1,-91 24,-25 62,-24 86,1 90,98 159,213 207,337 47,125 73,259 73,396 0,128 -22,254 -64,373 -42,118 -104,229 -184,325z"/>
   <path class="fil5" d="M1307 1509c-21,28 -59,33 -85,11 -26,-22 -31,-63 -10,-91 40,-54 71,-115 92,-180 21,-64 32,-133 32,-202 0,-79 -14,-157 -41,-228 -27,-72 -66,-138 -117,-195 -23,-26 -22,-67 2,-91 24,-25 63,-24 86,2 61,69 109,150 142,237 33,87 50,181 50,276 0,84 -13,166 -39,245 -25,78 -63,152 -112,217z"/>
   <path class="fil6" d="M1154 1252c-21,28 -59,33 -85,11 -26,-22 -31,-63 -10,-91 14,-20 26,-42 33,-65 7,-23 11,-48 11,-73 0,-29 -5,-57 -15,-82 -10,-26 -24,-50 -42,-70 -23,-26 -22,-67 2,-91 24,-25 63,-24 86,2 29,33 51,71 67,112 15,41 24,86 24,130 0,39 -6,78 -18,116 -12,37 -30,71 -53,103z"/>
  </g>
  <g id="_353380792">
   <path class="fil7" d="M1544 1738c-22,27 -61,29 -86,5 -25,-24 -27,-65 -5,-91 70,-84 124,-181 161,-284 37,-103 56,-214 56,-327 0,-6 0,-11 0,-17l121 0c0,6 0,11 0,17 0,128 -22,254 -64,373 -42,118 -104,229 -184,325z"/>
   <path class="fil8" d="M1307 1509c-21,28 -59,33 -85,11 -26,-22 -31,-63 -10,-91 40,-54 71,-115 92,-180 21,-64 32,-133 32,-202 0,-8 0,-15 0,-23l121 0c0,8 0,15 0,23 0,84 -13,166 -39,245 -25,78 -63,152 -112,217z"/>
   <path class="fil9" d="M1154 1252c-21,28 -59,33 -85,11 -26,-22 -31,-63 -10,-91 14,-20 26,-42 33,-65 7,-23 11,-48 11,-73 0,-3 0,-6 0,-10l121 0c0,3 0,6 0,10 0,39 -6,78 -18,116 -12,37 -30,71 -53,103z"/>
  </g>
  <rect class="fil10" width="2048" height="2048"/>
 </g>
</svg>
